<?xml version="1.0" encoding="utf-8"?>
<!-- Generator: Adobe Illustrator 24.0.3, SVG Export Plug-In . SVG Version: 6.00 Build 0)  -->
<svg version="1.1" id="Layer_1" xmlns="http://www.w3.org/2000/svg" xmlns:xlink="http://www.w3.org/1999/xlink" x="0px" y="0px"
	 viewBox="0 0 261.77 272.79" style="enable-background:new 0 0 261.77 272.79;" xml:space="preserve">
<style type="text/css">
	.st0{fill:#FFFFFF;}
	.st1{font-family:'SavoyeLetPlain';}
	.st2{font-size:225.1049px;}
	.st3{fill:#DBA94B;}
</style>
<g>
	<text transform="matrix(1 0 0 1 67.7927 202.9262)" class="st0 st1 st2">F</text>
	
		<ellipse transform="matrix(0.8928 -0.4505 0.4505 0.8928 -38.2896 35.1787)" class="st3" cx="54.75" cy="98.02" rx="20.94" ry="13.17"/>
	
		<ellipse transform="matrix(0.9037 -0.4282 0.4282 0.9037 -9.0257 37.9036)" class="st3" cx="79.75" cy="39.02" rx="13.17" ry="20.94"/>
	
		<ellipse transform="matrix(0.2007 -0.9796 0.9796 0.2007 -45.0899 198.3615)" class="st3" cx="99.02" cy="126.81" rx="14.61" ry="9.19"/>
	
		<ellipse transform="matrix(0.1421 -0.9899 0.9899 0.1421 -90.9943 262.6382)" class="st3" cx="106.02" cy="183.81" rx="9.19" ry="14.61"/>
	
		<ellipse transform="matrix(0.3546 -0.935 0.935 0.3546 -106.4115 180.4557)" class="st3" cx="77.52" cy="167.31" rx="14.61" ry="9.19"/>
	
		<ellipse transform="matrix(0.6701 -0.7423 0.7423 0.6701 -81.877 144.4146)" class="st3" cx="121.52" cy="164.31" rx="9.19" ry="14.61"/>
	
		<ellipse transform="matrix(0.9975 -0.0711 0.0711 0.9975 -8.3184 5.7752)" class="st3" cx="77.02" cy="119.81" rx="9.19" ry="14.61"/>
	
		<ellipse transform="matrix(8.028664e-03 -1 1 8.028664e-03 -30.0901 103.2945)" class="st3" cx="37.02" cy="66.81" rx="9.19" ry="14.61"/>
	<ellipse transform="matrix(0.8331 -0.553 0.553 0.8331 -15.1267 38.3369)" class="st3" cx="55.97" cy="44.24" rx="8" ry="12.71"/>
	
		<ellipse transform="matrix(0.1588 -0.9873 0.9873 0.1588 -8.0343 132.0467)" class="st3" cx="73.47" cy="70.74" rx="8" ry="12.71"/>
	
		<ellipse transform="matrix(0.9975 -0.0711 0.0711 0.9975 -7.1734 1.9639)" class="st3" cx="24.02" cy="101.81" rx="9.19" ry="14.61"/>
	
		<ellipse transform="matrix(0.5962 -0.8028 0.8028 0.5962 -98.5622 61.6624)" class="st3" cx="12.02" cy="128.81" rx="9.19" ry="14.61"/>
	
		<ellipse transform="matrix(0.9334 -0.3589 0.3589 0.9334 -62.1552 26.764)" class="st3" cx="41.02" cy="180.81" rx="14.61" ry="9.19"/>
	
		<ellipse transform="matrix(0.6862 -0.7275 0.7275 0.6862 -110.0819 63.4716)" class="st3" cx="18.52" cy="159.31" rx="14.61" ry="9.19"/>
	
		<ellipse transform="matrix(0.105 -0.9945 0.9945 0.105 -170.0468 222.1209)" class="st3" cx="38.38" cy="205.54" rx="10.85" ry="17.26"/>
	
		<ellipse transform="matrix(0.9662 -0.2579 0.2579 0.9662 -57.984 25.0208)" class="st3" cx="66.38" cy="233.54" rx="10.85" ry="17.26"/>
	
		<ellipse transform="matrix(0.2949 -0.9555 0.9555 0.2949 8.0248 251.5409)" class="st3" cx="174.46" cy="120.33" rx="8.16" ry="12.98"/>
	
		<ellipse transform="matrix(0.2949 -0.9555 0.9555 0.2949 -33.7682 216.0017)" class="st3" cx="129.48" cy="130.88" rx="11.47" ry="18.23"/>
	
		<ellipse transform="matrix(0.5229 -0.8524 0.8524 0.5229 -124.6614 201.063)" class="st3" cx="117.29" cy="211.9" rx="9.36" ry="14.89"/>
	
		<ellipse transform="matrix(0.825 -0.5652 0.5652 0.825 -118.7398 114.3704)" class="st3" cx="125.29" cy="248.9" rx="14.89" ry="9.36"/>
	
		<ellipse transform="matrix(0.5229 -0.8524 0.8524 0.5229 -131.1339 254.4988)" class="st3" cx="161.79" cy="244.4" rx="9.36" ry="14.89"/>
	
		<ellipse transform="matrix(0.2072 -0.9783 0.9783 0.2072 54.6812 283.5106)" class="st3" cx="202.27" cy="108.02" rx="13.17" ry="20.94"/>
	
		<ellipse transform="matrix(0.2072 -0.9783 0.9783 0.2072 -96.2804 169.2196)" class="st3" cx="56.27" cy="144.02" rx="13.17" ry="20.94"/>
	
		<ellipse transform="matrix(0.2072 -0.9783 0.9783 0.2072 42.551 203.7471)" class="st3" cx="146.99" cy="75.62" rx="9.7" ry="15.42"/>
	
		<ellipse transform="matrix(0.7661 -0.6427 0.6427 0.7661 -33.4156 114.4219)" class="st3" cx="140.49" cy="103.12" rx="9.7" ry="15.42"/>
	
		<ellipse transform="matrix(0.4282 -0.9037 0.9037 0.4282 73.3585 201.9665)" class="st3" cx="196.27" cy="43.02" rx="20.94" ry="13.17"/>
	
		<ellipse transform="matrix(0.2848 -0.9586 0.9586 0.2848 54.0943 112.4568)" class="st3" cx="102.41" cy="19.98" rx="8.67" ry="13.78"/>
	
		<ellipse transform="matrix(0.6553 -0.7554 0.7554 0.6553 17.7225 122.7933)" class="st3" cx="143.41" cy="41.98" rx="8.67" ry="13.78"/>
	
		<ellipse transform="matrix(0.9796 -0.2007 0.2007 0.9796 -25.2827 40.2832)" class="st3" cx="186" cy="144.81" rx="9.19" ry="14.61"/>
	
		<ellipse transform="matrix(0.8336 -0.5524 0.5524 0.8336 -20.1562 112.7244)" class="st3" cx="177" cy="89.81" rx="14.61" ry="9.19"/>
	
		<ellipse transform="matrix(0.9899 -0.1421 0.1421 0.9899 -24.9617 26.0611)" class="st3" cx="170" cy="187.81" rx="14.61" ry="9.19"/>
	
		<ellipse transform="matrix(0.7423 -0.6701 0.6701 0.7423 -72.967 146.9009)" class="st3" cx="154.5" cy="168.31" rx="14.61" ry="9.19"/>
	
		<ellipse transform="matrix(0.0711 -0.9975 0.9975 0.0711 60.9181 353.039)" class="st3" cx="220" cy="143.81" rx="14.61" ry="9.19"/>
	
		<ellipse transform="matrix(1 -8.028664e-03 8.028664e-03 1 -0.6657 1.7931)" class="st3" cx="223" cy="83.81" rx="14.61" ry="9.19"/>
	
		<ellipse transform="matrix(0.9619 -0.2733 0.2733 0.9619 -8.7152 63.9151)" class="st3" cx="225.05" cy="63.24" rx="12.71" ry="8"/>
	<ellipse transform="matrix(0.9619 -0.2733 0.2733 0.9619 -0.569 44.3917)" class="st3" cx="159.05" cy="24.24" rx="12.71" ry="8"/>
	<ellipse transform="matrix(0.9619 -0.2733 0.2733 0.9619 -3.3252 62.607)" class="st3" cx="223.05" cy="43.24" rx="12.71" ry="8"/>
	
		<ellipse transform="matrix(0.6254 -0.7803 0.7803 0.6254 11.5844 227.7573)" class="st3" cx="243" cy="101.81" rx="14.61" ry="9.19"/>
	
		<ellipse transform="matrix(0.6254 -0.7803 0.7803 0.6254 40.6053 108.2074)" class="st3" cx="133" cy="11.81" rx="14.61" ry="9.19"/>
	
		<ellipse transform="matrix(0.4891 -0.8723 0.8723 0.4891 10.5053 285.5612)" class="st3" cx="249" cy="133.81" rx="9.19" ry="14.61"/>
	
		<ellipse transform="matrix(0.4891 -0.8723 0.8723 0.4891 16.3922 121.611)" class="st3" cx="112" cy="46.81" rx="9.19" ry="14.61"/>
	
		<ellipse transform="matrix(0.3589 -0.9334 0.9334 0.3589 -21.8362 337.8373)" class="st3" cx="235" cy="184.81" rx="9.19" ry="14.61"/>
	
		<ellipse transform="matrix(0.7275 -0.6862 0.6862 0.7275 -43.767 208.4393)" class="st3" cx="240.5" cy="159.31" rx="9.19" ry="14.61"/>
	
		<ellipse transform="matrix(0.9945 -0.105 0.105 0.9945 -20.6909 26.1147)" class="st3" cx="237.64" cy="209.54" rx="17.26" ry="10.85"/>
	
		<ellipse transform="matrix(0.2579 -0.9662 0.9662 0.2579 -68.5665 357.8004)" class="st3" cx="198.64" cy="223.54" rx="17.26" ry="10.85"/>
	
		<ellipse transform="matrix(0.9555 -0.2949 0.2949 0.9555 -41.8918 68.0175)" class="st3" cx="204.54" cy="172.88" rx="18.23" ry="11.47"/>
	
		<ellipse transform="matrix(0.9959 -0.0903 0.0903 0.9959 -18.5086 14.8437)" class="st3" cx="154.73" cy="211.9" rx="9.36" ry="14.89"/>
	
		<ellipse transform="matrix(0.982 -0.189 0.189 0.982 -43.4944 23.7437)" class="st3" cx="102.73" cy="239.9" rx="14.89" ry="9.36"/>
</g>
</svg>
