<?xml version="1.0" encoding="utf-8"?>
<!-- Generator: Adobe Illustrator 16.0.4, SVG Export Plug-In . SVG Version: 6.00 Build 0)  -->
<!DOCTYPE svg PUBLIC "-//W3C//DTD SVG 1.1//EN" "http://www.w3.org/Graphics/SVG/1.1/DTD/svg11.dtd">
<svg version="1.1"
	 id="svg2" xmlns:sodipodi="http://sodipodi.sourceforge.net/DTD/sodipodi-0.dtd" xmlns:cc="http://creativecommons.org/ns#" xmlns:dc="http://purl.org/dc/elements/1.1/" xmlns:inkscape="http://www.inkscape.org/namespaces/inkscape" xmlns:rdf="http://www.w3.org/1999/02/22-rdf-syntax-ns#" xmlns:svg="http://www.w3.org/2000/svg" inkscape:version="0.48.4 r9939" sodipodi:docname="Twitter_bird_logo_2012.svg"
	 xmlns="http://www.w3.org/2000/svg" xmlns:xlink="http://www.w3.org/1999/xlink" x="0px" y="0px" width="100px" height="100px"
	 viewBox="0 0 100 100" enable-background="new 0 0 100 100" xml:space="preserve">
<sodipodi:namedview  id="base" borderopacity="1.0" showgrid="false" fit-margin-top="0" inkscape:cy="50.181142" inkscape:zoom="3.7200571" inkscape:cx="101.29413" fit-margin-left="0" bordercolor="#666666" pagecolor="#ffffff" inkscape:document-units="px" inkscape:window-height="962" inkscape:window-width="1280" inkscape:window-x="-8" fit-margin-bottom="0" inkscape:pageshadow="2" inkscape:pageopacity="0.0" fit-margin-right="0" inkscape:current-layer="layer1" inkscape:window-maximized="1" inkscape:window-y="-8">
	</sodipodi:namedview>
<g id="layer1" transform="translate(-282.32053,-396.30734)" inkscape:label="Layer 1" inkscape:groupmode="layer">
	<path id="path5" inkscape:connector-curvature="0" fill="#FFFFFF" d="M378.821,421.717c-3.396,1.506-7.049,2.525-10.88,2.983
		c3.912-2.345,6.915-6.056,8.329-10.481c-3.661,2.171-7.715,3.748-12.031,4.597c-3.455-3.683-8.378-5.982-13.827-5.982
		c-10.462,0-18.944,8.482-18.944,18.944c0,1.484,0.167,2.93,0.489,4.316c-15.744-0.789-29.703-8.332-39.047-19.793
		c-1.631,2.798-2.566,6.051-2.566,9.523c0,6.572,3.345,12.371,8.428,15.769c-3.105-0.098-6.027-0.951-8.582-2.37
		c-0.002,0.08-0.002,0.159-0.002,0.238c0,9.178,6.531,16.835,15.197,18.576c-1.59,0.435-3.263,0.665-4.99,0.665
		c-1.221,0-2.408-0.12-3.565-0.339c2.411,7.525,9.407,13.003,17.698,13.155c-6.484,5.081-14.652,8.11-23.528,8.11
		c-1.528,0-3.037-0.091-4.519-0.265c8.384,5.375,18.342,8.512,29.04,8.512c34.846,0,53.901-28.867,53.901-53.902
		c0-0.821-0.019-1.638-0.056-2.451C373.069,428.852,376.28,425.516,378.821,421.717L378.821,421.717z"/>
</g>
</svg>
